<svg version="1" xmlns="http://www.w3.org/2000/svg" width="248" height="248" viewBox="0 0 186.000000 186.000000"><path d="M56 67.4c-2.1 2.2-4.9 5.4-6.1 7.1-1.3 1.6-2.6 3.2-2.9 3.5-.3.3-4.1 4.7-8.5 9.9s-10 11.7-12.4 14.5c-2.4 2.8-5.3 6.2-6.5 7.6-1.1 1.4-4.3 5.1-6.9 8.3-5.3 6.3-5.6 5.9 4.3 6.1 5.5.1 5.5.1 10-5.4 2.5-3 5.5-6.6 6.7-8 1.2-1.4 6.1-7.2 10.9-13 10.5-12.8 15.1-18 15.7-18 .3 0 .4 6.1.3 13.6 0 8.1.3 13.8.9 14.2.6.3 3.4.7 6.3.7 5.9.2 5.3 1.3 5.3-11V77.2L73 63.5l-6.6-.1c-6.4-.2-6.6-.1-10.4 4zM78.3 64.4c-1.2 1.7-1 9.6.2 9.6.5.1 4.1.2 7.9.4 6.1.2 7.2.6 9.3 3 2.5 3 2.8 4.3 1.3 8-1.3 3.5-4.5 4.9-12 5.1-3.6.2-6.7.3-7 .4-.7.1-.8 17.1-.1 17.2 1.8.4 12.8.5 13.8.2.6-.3 1-1.3.8-2.3-.5-2.6.6-6.1 1.6-5.4 1.8 1.1 9.7-3.7 12.4-7.5 4.8-7 4.4-17.9-1-23.6-1.2-1.4-4-3.2-6.1-4.1-4.7-2-20.1-2.7-21.1-1zM114.3 64.3c-.6 1.1-1.2 41.3-.5 43.3.3 1.1 15.7 1.4 16.5.3.1-.2 1.5-2.1 3.1-4.2 1.5-2.1 2.5-4.1 2.2-4.4-.3-.3-2.3-.7-4.3-.9-2.1-.1-4.1-.3-4.4-.3-.4-.1-.7-1.7-.7-3.6V91h5.4c3 0 5.4-.5 5.5-1 .1-.6.2-2.7.2-4.8l.1-3.7-5.6-.3-5.6-.3.2-3.7c.1-3.7.1-3.7 4.9-4 2.6-.2 4.7-.6 4.7-1s-1.4-2.5-3.1-4.7l-3-4-7.5-.1c-4.2-.1-7.7.3-8.1.9z"/><path d="M135.4 64.1c-.2.4-.1.9.4 1.1.4.1 3.8 4.9 7.5 10.6L150 86l-7.1 10.6c-3.9 5.8-6.8 10.9-6.4 11.2.4.4 3.4.7 6.8.8 6.8.1 8.3-.9 11.4-7.3.8-1.8 1.9-3.3 2.4-3.3.4 0 2.2 2.1 4 4.7 1.8 2.7 3.4 5 3.6 5.2.6.8 14.3.8 14.3 0 0-.5-3.1-5.6-7-11.5l-6.9-10.6 6.9-10.4c3.9-5.7 7-10.7 7-11.2 0-.9-13.5-1.1-14.3-.2-.2.3-1.8 2.6-3.6 5.2-1.8 2.7-3.4 4.8-3.6 4.8-.2 0-2-2.4-3.8-5.3l-3.5-5.4h-7.1c-4 0-7.4.4-7.7.8zM134.3 113.1c-3.6 1.3-2.9 4.6 1.2 6.3 3.7 1.6 4.5 3 2 4-1.8.6-4.5-.2-4.5-1.5 0-.5-.5-.9-1-.9-.7 0-.7.6 0 2 1.3 2.4 5.2 2.6 7.4.5 1.9-2 1-4.4-2-5.1-1.3-.3-2.8-1.2-3.5-2-1.6-1.9 1.7-3.1 4.2-1.5 1.1.6 1.9.7 1.9.1 0-1.7-3.4-2.8-5.7-1.9zM39 119c0 3.3.4 6 .9 6 .6 0 .8-.9.6-2-.6-3.4 2.5-3.7 5.1-.7 2.9 3.4 4.1 3.5 1.9.1-1.5-2.3-1.5-2.7-.1-4.2 2.4-2.7.3-5.2-4.4-5.2h-4v6zm6.4-4.4c2.2.8 2 2.1-.4 3.4-3.3 1.8-6.9-1.2-3.8-3.1 1.6-1 2.2-1.1 4.2-.3zM50.8 118.1c-.1 2.8-.1 5.5.2 5.9.7 1.1 8 1 8-.1 0-.5-1.1-.7-2.3-.5-2.8.5-4.3-.3-4.2-2.4 0-.9 1-1.5 2.7-1.5 1.5-.1 3-.4 3.4-.8.4-.4-.9-.7-2.9-.7-3.1 0-3.7-.4-3.7-2.1 0-1.1.4-1.8.8-1.5.5.3 2.2.1 3.8-.4 2.8-.8 2.7-.8-1.3-.9l-4.1-.1-.4 5.1zM62.7 113.6c-1.8 1.8-.5 4.5 2.9 5.9 2.1.8 3.4 2 3.1 2.7-.5 1.5-5 1.3-5.5-.2-.2-.6-.8-1-1.3-1-.6 0-.5.8.1 2 1.6 2.9 6.8 2.7 7.9-.3 1.1-2.8-.1-4.4-3.9-5.2-2-.4-2.7-1.1-2.3-2.1.6-1.7 3.4-1.8 5.2-.2 1.1 1.1 1.3 1 .9-.2-.5-1.6-5.9-2.6-7.1-1.4zM73.5 115.4c-3.2 4.9.9 10.9 6.1 9.1 5.7-2 4.7-10.7-1.3-11.3-2.5-.3-3.5.2-4.8 2.2zm7.8.7c1.3 2.1.2 6.5-1.9 7.3-4.1 1.6-7.4-5-4.2-8.2 1.6-1.6 4.8-1.1 6.1.9zM85.2 117.2c-.1 2.3.4 5 .9 6 1 1.9 4.5 2.4 6.7.9 1.6-.9 2.5-11.1 1.1-11.1-.5 0-.9 2-.9 4.4 0 4.3-.9 5.8-3.7 6.2-1.8.3-2.3-.8-2.4-6-.3-5.7-1.6-6.1-1.7-.4zM97 118.9c0 6 1.4 8.6 1.8 3.4.1-1.4.4-2.8.6-3 .8-.8 3.4 1 4.6 3.2.7 1.3 1.7 2.2 2.2 1.9.5-.3.1-1.5-.8-2.6-1.4-1.5-1.5-2.1-.5-2.7.7-.5 1.1-1.9.9-3.2-.2-2-.9-2.4-4.5-2.7l-4.3-.3v6zm6.9-4c1.9 1.2.4 3.1-2.5 3.1-1.7 0-2.4-.5-2.4-2 0-2.1 2.4-2.7 4.9-1.1zM110.1 114.4c-3.3 3.9-1.2 10.6 3.4 10.6 2.5 0 6.1-2.8 5-3.9-.4-.3-1.2.2-1.9 1.1-2.3 3.1-6.6 1.1-6.6-3.1 0-3.9 2.5-5.9 5.2-4.2 1.1.7 2.3 1 2.6.6.9-.9-1.9-2.5-4.4-2.5-1.2 0-2.7.6-3.3 1.4zM120.9 114.2c-.1.7-.1 3.3-.2 5.8v4.5l3.8.3c2.1.2 4.2-.1 4.7-.6.7-.7-.3-.9-2.6-.7-1.9.2-3.8 0-4.1-.5-.8-1.3.6-4.2 1.9-3.7.6.2 2 .1 3.1-.4 1.6-.6 1.2-.8-1.7-.8-3-.1-3.6-.5-3.5-2 .1-1.5.9-1.9 3.5-1.9 1.8 0 3.6-.3 3.9-.6.4-.3-1.5-.6-4-.6-3 0-4.7.4-4.8 1.2zM147.5 118.5c.1 7.6 1.5 8.2 1.5.7 0-3.4-.4-6.2-.8-6.2-.5 0-.8 2.5-.7 5.5zM151.9 114.2c-.3 4.6 0 10 .5 10.5.3.4.6-1.2.6-3.5s.3-4.2.8-4.2c.4 0 1.8 1.8 3.2 4 1.3 2.2 2.8 4 3.2 4 .4 0 .8-2.7.8-6s-.4-6-.9-6c-.4 0-.7 1.6-.6 3.6.2 4.8-.7 4.9-3.5.3-2.5-4-3.9-4.9-4.1-2.7zM164.6 114.6c-.9.8-1.6 2.8-1.6 4.3 0 5 6.1 8.1 9 4.6 1.8-2.2.4-3.1-1.6-1.1-2 2.1-3.5 1.7-5.1-1.4-.8-1.7-.8-2.9-.1-4.6 1.1-2.4 4.2-3.2 5.3-1.4.3.5 1.1 1 1.7 1 .7 0 .6-.6-.2-1.5-1.6-2-5.4-1.9-7.4.1zM175.5 124c-.3.5-.1 1 .4 1 .6 0 1.1-.5 1.1-1 0-.6-.2-1-.4-1-.3 0-.8.4-1.1 1z"/></svg>